# xmcd
#
# Track frame offsets: 
#        150
#        15381
#        34594
#        51268
#        63864
#        81857
#        96993
#        116629
#        131233
#        154034
#        171694
#        190452
#
# Disc length: 2781 seconds
#
# Revision: 4
# Processed by: cddbd v1.5.2PL0 Copyright (c) Steve Scherf et al.
# Submitted via: ExactAudioCopyFreeDBPlugin 1.0
#
DISCID=a40adb0c
DTITLE=Kasey Chambers - Carnival
DYEAR=2006
DGENRE=Country
TTITLE0=Colour Of A Carnival
TTITLE1=Sign On The Door
TTITLE2=The Rain
TTITLE3=Light Up A Candle
TTITLE4=Hard Road
TTITLE5=Nothing At All
TTITLE6=Railroad
TTITLE7=I Got You Now
TTITLE8=Dangerous
TTITLE9=Surrender
TTITLE10=You Make Me Sing
TTITLE11=Don't Look So Sad
EXTD=
EXTT0=
EXTT1=
EXTT2=
EXTT3=
EXTT4=
EXTT5=
EXTT6=
EXTT7=
EXTT8=
EXTT9=
EXTT10=
EXTT11=
PLAYORDER=
